<?xml version="1.0" encoding="utf-8"?>
<!-- Generator: Adobe Illustrator 19.1.0, SVG Export Plug-In . SVG Version: 6.00 Build 0)  -->
<svg version="1.1" id="Layer_1" xmlns="http://www.w3.org/2000/svg" xmlns:xlink="http://www.w3.org/1999/xlink" x="0px" y="0px"
	 viewBox="-256 334 97.5 125" style="enable-background:new -256 334 97.5 125;" xml:space="preserve">
<style type="text/css">
	.st0{fill:#35AED8;}
	.st1{fill:#316BDD;}
</style>
<path class="st0" d="M-211.8,395.9h-0.2c-10.1-0.1-18.7-7.4-20.5-17.3c-0.7-3.9-0.3-7.7,1-11.2c-0.5,0.2-0.9,0.3-1.4,0.6
	c-0.1,0-0.2,0.1-0.3,0.2c-0.5,0.3-1.1,0.6-1.6,0.9c-0.1,0.1-0.2,0.1-0.3,0.2c-0.6,0.4-1.1,0.8-1.6,1.3c-0.1,0.1-0.2,0.2-0.3,0.3
	c-0.5,0.4-0.9,0.9-1.3,1.4c-0.1,0.1-0.1,0.1-0.2,0.2c-0.4,0.5-0.8,1.1-1.2,1.8c-0.1,0.1-0.2,0.3-0.2,0.4c-0.3,0.6-0.7,1.3-0.9,2
	c-3,8.1,1.2,17,9.2,19.9c1.2,0.4,2.4,0.7,3.6,0.8l4.5,9.8l5.9,2.1l-2.1,5.9l0,0.1l5.9,2.1l-2.1,5.9l0,0.1l5.9,2.1l-1.9,5.3l10.1,3.7
	l3.9-10.7l-5.3-11.5l-7.6-16.5C-211.2,395.9-211.5,395.9-211.8,395.9z"/>
<path class="st1" d="M-159.9,399.5l-11.9-8.2l-22.4-15.4c0.1-1.4,0-2.8-0.2-4.2c-0.1-0.6-0.2-1.1-0.4-1.7c-0.1-0.2-0.1-0.4-0.2-0.5
	c-0.1-0.4-0.2-0.7-0.4-1.1c-0.1-0.2-0.2-0.4-0.3-0.6c-0.1-0.3-0.3-0.6-0.4-0.9c-0.1-0.2-0.2-0.4-0.3-0.6c-0.2-0.3-0.3-0.6-0.5-0.8
	c-0.1-0.2-0.2-0.4-0.4-0.6c-0.2-0.3-0.4-0.5-0.6-0.8c-0.1-0.2-0.3-0.4-0.4-0.5c-0.2-0.3-0.4-0.5-0.7-0.7c-0.1-0.2-0.3-0.3-0.4-0.5
	c-0.3-0.3-0.5-0.5-0.8-0.7c-0.1-0.1-0.2-0.2-0.4-0.3c-0.4-0.3-0.8-0.7-1.3-1c0,0,0,0-0.1,0c-0.4-0.3-0.9-0.6-1.3-0.8
	c-0.2-0.1-0.3-0.2-0.5-0.2c-0.3-0.2-0.6-0.3-1-0.5c-0.2-0.1-0.4-0.2-0.6-0.2c-0.3-0.1-0.6-0.2-0.9-0.4c-0.2-0.1-0.4-0.1-0.6-0.2
	c-0.3-0.1-0.6-0.2-0.9-0.3c0,0,0,0-0.1,0c-0.2,6.4-2.8,12.4-7.4,17c-1,1-2.3,1.5-3.6,1.5c-1.4,0-2.7-0.5-3.7-1.5c-2-2-2-5.3,0-7.3
	c2.5-2.5,3.9-5.6,4.3-9c-7.8,3-12.7,11.1-11.1,19.7c1.5,8.4,8.9,14.4,17.1,14.5c0.4,0,0.8,0,1.2,0c0.2,0,0.4,0,0.5,0
	c0.6,0,1.1-0.1,1.7-0.2c1.4-0.3,2.8-0.7,4-1.3l10.1,7l7-1.3l1.3,7l0.1,0.1l7-1.3l1.3,7l0.1,0.1l7-1.3l1.2,6.3l12.1-2.2L-159.9,399.5
	z"/>
<path d="M-219.9,369.8c-0.7,0.7-0.7,1.8,0,2.4c0.3,0.3,0.8,0.5,1.2,0.5c0.4,0,0.9-0.2,1.2-0.5c5.1-5.1,7.1-12,6.2-18.6
	c-0.6-4.6-2.7-9-6.2-12.6c-4.3-4.3-9.9-6.4-15.6-6.4c-1.3,0-2.5,0.1-3.8,0.3c-0.1,0-0.3,0-0.4,0.1c-0.3,0.1-0.6,0.2-0.9,0.2
	c-0.4,0.1-0.8,0.2-1.1,0.3c-0.1,0-0.1,0-0.2,0.1c-2.4,0.7-4.7,1.9-6.8,3.5c-0.8,0.6-1.6,1.3-2.3,2c-8.6,8.6-8.6,22.6,0,31.2
	c1.4,1.4,2.9,2.5,4.6,3.5c0-0.1,0-0.1,0.1-0.2c0.3-0.8,0.6-1.6,1.1-2.5c0.1-0.1,0.2-0.3,0.2-0.4c-1.3-0.8-2.5-1.7-3.6-2.8
	c-7.3-7.3-7.3-19.1,0-26.3c1.1-1.1,2.3-2,3.6-2.8c0.7-0.4,1.3-0.7,2-1c0.2-0.1,0.3-0.1,0.5-0.2c0.7-0.3,1.4-0.5,2.1-0.7
	c0.1,0,0.1,0,0.2,0c0.7-0.2,1.3-0.3,2-0.4c0.2,0,0.3-0.1,0.5-0.1c0.7-0.1,1.4-0.1,2.2-0.1c0,0,0.1,0,0.1,0c0.3,0,0.7,0,1,0
	c0.2,0,0.3,0,0.5,0c0.5,0,1.1,0.1,1.6,0.2c2.9,0.5,5.7,1.6,8.1,3.5c0.7,0.5,1.3,1.1,2,1.7c2.9,2.9,4.6,6.6,5.2,10.4
	C-213.8,359.5-215.5,365.4-219.9,369.8z"/>
</svg>
